<?xml version="1.0" encoding="UTF-8"?><svg id="Layer_2" xmlns="http://www.w3.org/2000/svg" width="830" height="829.87234" viewBox="0 0 830 829.87234"><defs><style>.cls-1{fill:#ff922f;}</style></defs><g id="Flat_Icon"><path class="cls-1" d="M711.83496,124.84988c-37.0332-37.89746-80.2793-67.97949-128.53711-89.41016C533.38086,13.27224,480.23535,1.34939,425.33984.00222c-.28149-.00684-.55902.00464-.83984.00092v150.05994c141.14423,4.99554,255.5,123.18048,255.5,264.80927,0,146.12207-118.87891,265-265,265s-265-118.87793-265-265c0-5.5918.20166-11.51758.59961-17.6123,2.69971-41.3335-28.61963-77.02881-69.95264-79.72803-41.33203-2.71045-77.02881,28.61963-79.72852,69.95264-.60938,9.33496-.91846,18.54883-.91846,27.3877,0,55.99121,10.98291,110.34766,32.64355,161.55957,20.90576,49.42676,50.81836,93.80078,88.90674,131.88965,38.08887,38.08887,82.46289,68.00098,131.89014,88.90723,51.21143,21.66113,105.56787,32.64355,161.55957,32.64355s110.34766-10.98242,161.55957-32.64355c49.42676-20.90625,93.80078-50.81836,131.88965-88.90723s68.00098-82.46289,88.90723-131.88965c21.66113-51.21191,32.64355-105.56836,32.64355-161.55957,0-109.04492-41.96484-212.04346-118.16504-290.02246Z"/></g></svg>